# xmcd CD database file generated by Grip 3.3.1
# 
# Track frame offsets:
#       150
#       40902
#       88437
#       193735
#       237097
# 
# Disc length: 3764 seconds
# 
# Revision: 1
# Processed by: cddbd v1.5.2PL0 Copyright (c) Steve Scherf et al.
# Submitted via: Grip 3.3.1
# 
DISCID=3f0eb205
DTITLE=Royal Concertgebouw Orchestra Amsterdam, Eduard van Beinum - Radi
DTITLE=o Legacy RCO Eduard van Beinum, Chief Conductor 1945-1959 CD47
DYEAR=1900
DGENRE=Classical
TTITLE0=Overture "Egmont Op.84 (1809-1810) - Beethoven
TTITLE1=Ella giammai m'amò... Domirò sol nel manto mio regal (Don Carlo
TTITLE1=(1867)) - Boris Christoff (bas), Tibor de Machuta (cello), Verdi
TTITLE2=I. Allegro ma non troppo - Violin Concerto in D major, Op.61 (180
TTITLE2=6) - Zino Francescatti (violin), Beethoven
TTITLE3=II. Larghetto - Violin Concerto in D major, Op.61 (1806) - Zino F
TTITLE3=rancescatti (violin), Beethoven
TTITLE4=III. Rondo Allegro - Violin Concerto in D major, Op.61 (1806) - Z
TTITLE4=ino Francescatti (violin), Beethoven
EXTD=
EXTT0=
EXTT1=
EXTT2=
EXTT3=
EXTT4=
PLAYORDER=
